<?xml version="1.0" encoding="UTF-8"?>
<svg width="718px" height="718px" viewBox="0 0 718 718" version="1.1" xmlns="http://www.w3.org/2000/svg" xmlns:xlink="http://www.w3.org/1999/xlink">
    <!-- Generator: Sketch 55.2 (78181) - https://sketchapp.com -->
    <title>Group 2</title>
    <desc>Created with Sketch.</desc>
    <g id="Page-1" stroke="none" stroke-width="1" fill="none" fill-rule="evenodd">
        <g id="Artboard" transform="translate(-81.000000, -81.000000)">
            <g id="Group-2" transform="translate(81.000000, 81.000000)">
                <circle id="Oval" fill="#381B57" fill-rule="nonzero" cx="359" cy="359" r="359"></circle>
                <g id="Group" transform="translate(172.000000, 145.000000)">
                    <path d="M3,51 L357.712123,51 L375,28.7826596 L357.712123,1 L3,1 C1.34314575,1 -2.02906125e-16,2.34314575 0,4 L0,48 C-2.41183085e-16,49.6568542 1.34314575,51 3,51 Z" id="Path-2" stroke="#FFFFFF" stroke-width="22"></path>
                    <rect id="Rectangle" fill="#FFFFFF" x="0" y="0" width="147" height="50"></rect>
                </g>
                <g id="Group" transform="translate(171.000000, 523.000000)">
                    <path d="M3,50 L357.712123,50 L375,27.7826596 L357.712123,0 L3,0 C1.34314575,3.04359188e-16 -2.02906125e-16,1.34314575 0,3 L0,47 C-2.41183085e-16,48.6568542 1.34314575,50 3,50 Z" id="Path-2" stroke="#FFFFFF" stroke-width="22"></path>
                    <rect id="Rectangle" fill="#FFFFFF" x="0" y="0" width="147" height="50"></rect>
                </g>
                <path d="M351,265 L351,454 L297.486486,454 L297.486486,380.29 L224.513514,380.29 L224.513514,454 L171,454 L171,265 L224.513514,265 L224.513514,336.01 L297.486486,336.01 L297.486486,265 L351,265 Z M464.479339,458 C449.212045,458 434.394011,456.105788 420.024793,452.317308 C405.655576,448.528827 393.980761,443.477596 385,437.163462 L402.512397,397.65522 C410.954312,403.247739 420.743195,407.757767 431.879339,411.18544 C443.015483,414.613112 453.971847,416.326923 464.74876,416.326923 C485.224896,416.326923 495.46281,411.185491 495.46281,400.902473 C495.46281,395.490358 492.544106,391.476432 486.706612,388.860577 C480.869117,386.244721 471.484362,383.493604 458.552066,380.607143 C444.362463,377.540278 432.508037,374.247957 422.98843,370.730082 C413.468823,367.212208 405.296453,361.574672 398.471074,353.817308 C391.645696,346.059943 388.233058,335.596678 388.233058,322.427198 C388.233058,310.881353 391.376277,300.463187 397.66281,291.17239 C403.949343,281.881593 413.334097,274.530247 425.817355,269.118132 C438.300613,263.706017 453.612581,261 471.753719,261 C484.147169,261 496.360821,262.398109 508.395041,265.194368 C520.429261,267.990628 531.0264,272.094753 540.186777,277.506868 L523.752066,317.285714 C505.790544,307.543907 488.368128,302.673077 471.484298,302.673077 C460.886999,302.673077 453.163661,304.251587 448.31405,307.408654 C443.464439,310.565721 441.039669,314.669847 441.039669,319.721154 C441.039669,324.772461 443.91347,328.560885 449.661157,331.086538 C455.408844,333.612192 464.658889,336.228008 477.41157,338.934066 C491.780788,342.000931 503.680118,345.293252 513.109917,348.811126 C522.539717,352.329001 530.712087,357.921436 537.627273,365.588599 C544.542459,373.255762 548,383.673927 548,396.843407 C548,408.208848 544.856781,418.491712 538.570248,427.692308 C532.283715,436.892903 522.854057,444.244249 510.280992,449.746566 C497.707926,455.248883 482.440861,458 464.479339,458 Z" id="HS" fill="#FFFFFF" fill-rule="nonzero"></path>
            </g>
        </g>
    </g>
    <style>
      @media (prefers-color-scheme: dark) {
        circle {
          fill: #b11e25;
        }
      }
    </style>
</svg>
