<?xml version="1.0" standalone="no"?>
<!DOCTYPE svg PUBLIC "-//W3C//DTD SVG 20010904//EN"
 "http://www.w3.org/TR/2001/REC-SVG-20010904/DTD/svg10.dtd">
<svg version="1.0" xmlns="http://www.w3.org/2000/svg"
 width="1000.000000pt" height="1000.000000pt" viewBox="0 0 1000.000000 1000.000000"
 preserveAspectRatio="xMidYMid meet">
<metadata>
Created by potrace 1.14, written by Peter Selinger 2001-2017
</metadata>
<g transform="translate(0.000000,1000.000000) scale(0.100000,-0.100000)"
fill="#000000" stroke="none">
<path d="M4660 9989 c-992 -67 -1956 -437 -2740 -1052 -951 -747 -1602 -1809
-1829 -2987 -274 -1423 81 -2894 972 -4030 747 -951 1809 -1602 2987 -1829
1423 -274 2894 81 4030 972 951 747 1602 1809 1829 2987 274 1423 -81 2894
-972 4030 -747 951 -1809 1602 -2987 1829 -409 79 -876 108 -1290 80z m3178
-2159 l160 -260 -165 -215 -166 -215 -2761 0 c-1651 0 -2777 4 -2801 10 -24 5
-51 21 -67 40 l-28 30 0 391 c0 426 1 433 58 463 24 13 369 15 2818 16 l2791
0 161 -260z m-778 -1275 c325 -47 624 -170 813 -336 l38 -34 -50 -37 -50 -38
-73 55 c-358 270 -998 363 -1410 204 -141 -55 -207 -97 -308 -199 -100 -100
-144 -164 -189 -277 -49 -119 -56 -165 -55 -343 1 -190 17 -267 83 -405 90
-188 222 -309 425 -394 116 -48 208 -62 451 -70 215 -6 221 -7 266 -33 83 -49
128 -180 99 -288 -16 -61 -87 -129 -160 -154 -112 -37 -394 -32 -570 11 -63
15 -170 57 -170 67 0 2 22 20 49 40 43 32 52 35 76 26 88 -33 358 -56 491 -40
127 14 170 48 167 132 -2 45 -22 81 -55 100 -16 8 -98 15 -248 19 -197 6 -237
10 -325 33 -367 96 -609 354 -691 736 -22 103 -25 344 -6 435 77 357 303 611
652 733 75 26 198 54 285 65 81 11 369 5 465 -8z m-4830 -1555 l0 -1450 -65 0
-65 0 0 1450 0 1450 65 0 65 0 0 -1450z m250 0 l0 -1450 -65 0 -65 0 0 1450 0
1450 65 0 65 0 0 -1450z m260 0 l0 -1450 -60 0 -60 0 0 1450 0 1450 60 0 60 0
0 -1450z m240 885 l0 -565 570 0 570 0 0 565 0 565 65 0 65 0 0 -1450 0 -1450
-65 0 -65 0 0 570 0 570 -570 0 -570 0 0 -570 0 -570 -60 0 -60 0 0 1450 0
1450 60 0 60 0 0 -565z m1520 -885 l0 -1450 -65 0 -65 0 0 1450 0 1450 65 0
65 0 0 -1450z m260 0 l0 -1450 -60 0 -60 0 0 1450 0 1450 60 0 60 0 0 -1450z
m240 0 l0 -1451 -62 3 -63 3 -3 1435 c-1 789 0 1441 3 1448 3 8 26 12 65 12
l60 0 0 -1450z m2134 1291 c131 -27 266 -71 361 -118 75 -38 215 -131 215
-143 0 -4 -21 -23 -46 -43 l-46 -36 -56 38 c-172 117 -377 180 -648 201 -229
18 -396 -6 -553 -82 -149 -71 -265 -211 -312 -378 -19 -68 -17 -271 4 -350 61
-226 219 -379 437 -423 46 -10 153 -18 280 -21 274 -6 348 -26 452 -124 88
-83 135 -191 145 -334 11 -162 -39 -303 -142 -396 -111 -101 -228 -141 -442
-149 -276 -11 -522 42 -705 151 -74 44 -74 45 -9 90 l38 27 69 -35 c148 -74
311 -107 534 -109 230 -1 338 30 431 122 75 75 100 142 100 262 0 171 -69 288
-201 340 -48 19 -83 23 -295 29 -218 7 -248 10 -330 35 -115 33 -199 81 -279
156 -152 142 -226 325 -226 560 0 136 20 228 70 334 105 218 311 362 588 411
118 20 427 12 566 -15z m-119 -236 c199 -28 371 -89 473 -166 l22 -17 -37 -29
c-21 -16 -43 -33 -50 -36 -6 -4 -42 8 -80 27 -150 76 -311 108 -543 109 -282
0 -424 -63 -499 -222 -23 -50 -26 -68 -25 -161 0 -84 5 -116 22 -161 38 -95
106 -159 207 -192 16 -5 138 -13 270 -17 272 -9 343 -22 468 -87 104 -54 229
-181 285 -290 173 -336 92 -746 -191 -958 -177 -134 -374 -183 -690 -172 -312
11 -567 86 -774 230 -40 27 -73 53 -73 57 0 4 21 23 46 43 l46 36 56 -38 c137
-93 332 -163 532 -190 382 -52 659 9 835 182 117 117 175 259 175 433 0 291
-157 521 -410 599 -41 13 -117 19 -300 26 -319 11 -392 31 -496 134 -182 181
-189 521 -16 702 81 84 179 133 314 158 98 18 310 18 433 0z m10 -250 c123
-18 285 -69 285 -89 0 -3 -22 -20 -48 -39 l-48 -36 -69 20 c-93 26 -345 42
-456 29 -46 -6 -85 -10 -86 -10 -1 0 -18 -14 -38 -31 -32 -28 -35 -36 -35 -84
0 -64 24 -100 78 -115 20 -5 116 -10 213 -10 244 0 385 -28 539 -105 328 -164
530 -546 507 -955 -27 -473 -329 -812 -822 -922 -130 -28 -418 -36 -582 -14
-326 43 -634 169 -826 337 l-38 34 50 38 51 37 69 -54 c311 -240 880 -347
1291 -242 192 48 306 111 430 236 100 100 144 164 189 277 49 119 56 165 55
343 -1 136 -5 179 -23 245 -75 280 -271 490 -532 574 -110 36 -167 43 -399 49
-220 7 -226 8 -271 34 -123 72 -145 286 -39 382 46 42 71 54 150 72 76 17 285
17 405 -1z m826 -3220 c87 -137 156 -255 154 -262 -2 -7 -75 -102 -162 -213
l-158 -200 -2797 3 -2798 2 -32 33 -33 32 0 394 0 394 25 27 c14 15 34 31 45
35 11 5 1275 8 2809 7 l2789 -2 158 -250z"/>
<path d="M4370 7615 l0 -305 1608 0 1609 0 97 126 c54 70 100 132 102 139 3 7
-41 87 -98 179 l-103 166 -1607 0 -1608 0 0 -305z"/>
<path d="M2990 5130 l0 -60 565 0 565 0 0 60 0 60 -565 0 -565 0 0 -60z"/>
<path d="M2990 4870 l0 -60 565 0 565 0 0 60 0 60 -565 0 -565 0 0 -60z"/>
<path d="M4390 2375 l0 -295 1608 0 1609 0 68 88 c38 48 83 105 101 128 l33
40 -103 165 -103 164 -1607 3 -1606 2 0 -295z"/>
</g>
</svg>
